<svg xmlns="http://www.w3.org/2000/svg">
  
  <symbol id="icon-triangle" width="17" height="23" viewBox="0 0 17 23" fill="none" xmlns="http://www.w3.org/2000/svg">
    <path d="M16.625 11.4615L0.295959 22.2535V0.669525L16.625 11.4615Z" fill="currentColor"/>
  </symbol>

  <symbol id="icon-play" width="12" height="21" viewBox="0 0 12 21" fill="none" xmlns="http://www.w3.org/2000/svg">
    <g clip-path="url(#clip0_31_1455)">
      <path d="M11.4545 10.5L0 20.1995L5.96801e-07 0.800537L11.4545 10.5Z" fill="currentColor"/>
    </g>
    <defs>
      <clipPath id="clip0_31_1455">
        <rect width="12" height="21" fill="white"/>
      </clipPath>
    </defs>
  </symbol>

  <symbol id="icon-microphone" width="40" height="40" viewBox="0 0 40 40" fill="none" xmlns="http://www.w3.org/2000/svg">
    <path d="M15 13.75C14.9971 14.152 15.018 14.5538 15.0625 14.9532L3.37504 30.8907C3.02107 31.3728 2.85166 31.9658 2.89754 32.562C2.9434 33.1583 3.20151 33.7184 3.62504 34.1407L5.85941 36.375C6.28167 36.7985 6.84176 37.0567 7.43806 37.1025C8.03436 37.1484 8.62735 36.979 9.10941 36.625L25.0469 24.9375C25.4464 24.9822 25.8481 25.003 26.25 25C28.5464 25.0003 30.7876 24.2968 32.6719 22.9844C32.7461 22.9317 32.808 22.8633 32.853 22.7842C32.8981 22.7049 32.9252 22.6169 32.9327 22.526C32.9402 22.4353 32.9277 22.3439 32.8961 22.2584C32.8646 22.173 32.8147 22.0955 32.75 22.0313L17.9687 7.25006C17.9046 7.18538 17.8271 7.13552 17.7416 7.10395C17.6561 7.07239 17.5649 7.05991 17.474 7.06734C17.3832 7.07478 17.2951 7.10199 17.216 7.14704C17.1367 7.19211 17.0685 7.25393 17.0156 7.32818C15.7032 9.21251 14.9997 11.4537 15 13.75ZM17.7656 24.0157L14.6406 27.1407C14.4017 27.3717 14.0824 27.5009 13.75 27.5009C13.4176 27.5009 13.0984 27.3717 12.8594 27.1407C12.6246 26.9037 12.493 26.5837 12.493 26.25C12.493 25.9165 12.6246 25.5964 12.8594 25.3594L15.9844 22.2344C16.2272 22.0352 16.5356 21.9333 16.8494 21.9487C17.1632 21.964 17.4601 22.0957 17.6822 22.3178C17.9045 22.54 18.036 22.8369 18.0515 23.1507C18.0669 23.4645 17.965 23.7728 17.7656 24.0157ZM37.4844 13.125C37.6226 15.6314 36.9185 18.1119 35.4844 20.1719C35.4316 20.2462 35.3632 20.308 35.2841 20.353C35.2049 20.3982 35.1169 20.4253 35.026 20.4328C34.9352 20.4403 34.8439 20.4278 34.7585 20.3962C34.673 20.3647 34.5955 20.3148 34.5312 20.25L19.75 5.46881C19.6854 5.40464 19.6355 5.32712 19.6039 5.24165C19.5724 5.15619 19.5599 5.06487 19.5674 4.97407C19.5747 4.88327 19.602 4.79519 19.647 4.71602C19.6921 4.63683 19.7539 4.56846 19.8281 4.51568C21.4716 3.37261 23.3904 2.68878 25.3862 2.53476C27.3822 2.38073 29.3831 2.76209 31.1825 3.63949C32.9819 4.51688 34.5146 5.85853 35.6224 7.52598C36.7301 9.19342 37.373 11.1263 37.4844 13.125Z" fill="currentColor"/>
</symbol>

  <symbol id="icon-book" width="40" height="40" viewBox="0 0 40 40" fill="none" xmlns="http://www.w3.org/2000/svg">
    <path d="M32.5 3.75H11.25C9.92519 3.75412 8.65581 4.28223 7.71901 5.21901C6.78223 6.15581 6.25412 7.42519 6.25 8.75V35C6.25 35.3315 6.3817 35.6495 6.61611 35.8839C6.85054 36.1182 7.16848 36.25 7.5 36.25H30C30.3315 36.25 30.6495 36.1182 30.8839 35.8839C31.1182 35.6495 31.25 35.3315 31.25 35C31.25 34.6685 31.1182 34.3505 30.8839 34.1161C30.6495 33.8818 30.3315 33.75 30 33.75H8.75C8.75 33.087 9.01339 32.4511 9.48224 31.9823C9.95108 31.5134 10.587 31.25 11.25 31.25H32.5C32.8315 31.25 33.1495 31.1182 33.3839 30.8839C33.6182 30.6495 33.75 30.3315 33.75 30V5C33.75 4.66848 33.6182 4.35054 33.3839 4.11611C33.1495 3.8817 32.8315 3.75 32.5 3.75ZM28.75 18.75L24.75 15.75C24.6429 15.6664 24.5109 15.621 24.375 15.621C24.2391 15.621 24.1071 15.6664 24 15.75L20 18.75V6.25H28.75V18.75Z" fill="currentColor"/>
  </symbol>

  <symbol id="icon-flipped-quote" width="51" height="46" viewBox="0 0 51 46" fill="none" xmlns="http://www.w3.org/2000/svg">
    <g clip-path="url(#clip0_31_1620)">
      <path d="M20.3744 45.9605V24.0669H10.9106C10.9106 20.5602 11.5798 17.6221 12.9181 15.2526C14.2564 12.7885 16.7418 10.9403 20.3744 9.70817V0.325195C17.411 0.704308 14.6388 1.60469 12.0578 3.02635C9.57235 4.35325 7.42149 6.05925 5.60522 8.14435C3.78895 10.2294 2.35507 12.6463 1.30354 15.3948C0.347611 18.1434 -0.0825576 21.0815 0.0130354 24.2091V45.9605H20.3744ZM50.9164 45.9605V24.0669H41.4527C41.4527 20.5602 42.1217 17.6221 43.4601 15.2526C44.7985 12.7885 47.2837 10.9403 50.9164 9.70817V0.325195C47.9531 0.704308 45.1807 1.60469 42.5999 3.02635C40.1143 4.35325 37.9635 6.05925 36.1473 8.14435C34.331 10.2294 32.8971 12.6463 31.8455 15.3948C30.8896 18.1434 30.4594 21.0815 30.555 24.2091V45.9605H50.9164Z" fill="currentColor"/>
    </g>
    <defs>
      <clipPath id="clip0_31_1620">
        <rect width="51" height="46" fill="white"/>
      </clipPath>
    </defs>
  </symbol>

  <symbol id="icon-star" width="20" height="20" viewBox="0 0 20 20" fill="none" xmlns="http://www.w3.org/2000/svg">
    <path d="M9.07088 0.833047C9.41462 0.0165876 10.5854 0.0165887 10.9291 0.833049L12.9579 5.65194C13.1029 5.99614 13.4306 6.23131 13.8067 6.2611L19.0727 6.67818C19.9649 6.74885 20.3267 7.84884 19.6469 8.4241L15.6348 11.8194C15.3482 12.0619 15.223 12.4425 15.3106 12.805L16.5363 17.8817C16.744 18.7418 15.7969 19.4217 15.033 18.9608L10.5245 16.2403C10.2025 16.0459 9.7975 16.0459 9.47548 16.2403L4.96699 18.9608C4.20311 19.4217 3.25596 18.7418 3.46363 17.8817L4.68942 12.805C4.77698 12.4425 4.65182 12.0619 4.36526 11.8194L0.353062 8.4241C-0.326718 7.84884 0.035068 6.74885 0.927291 6.67818L6.19336 6.2611C6.5695 6.23131 6.89716 5.99614 7.04207 5.65194L9.07088 0.833047Z" fill="currentColor"/>
  </symbol>





</svg>